<mxfile host="65bd71144e">
    <diagram id="HQ_6EtoiigI_qZKRuaQz" name="Page-1">
        <mxGraphModel dx="1054" dy="617" grid="1" gridSize="10" guides="1" tooltips="1" connect="1" arrows="1" fold="1" page="1" pageScale="1" pageWidth="827" pageHeight="1169" math="0" shadow="0">
            <root>
                <mxCell id="0"/>
                <mxCell id="1" parent="0"/>
                <mxCell id="XAltgfJUorQuXmHK1meL-4" style="edgeStyle=orthogonalEdgeStyle;rounded=0;orthogonalLoop=1;jettySize=auto;html=1;exitX=1;exitY=0.5;exitDx=0;exitDy=0;" parent="1" source="XAltgfJUorQuXmHK1meL-5" edge="1">
                    <mxGeometry relative="1" as="geometry">
                        <mxPoint x="620" y="290" as="targetPoint"/>
                        <Array as="points">
                            <mxPoint x="620" y="280"/>
                        </Array>
                    </mxGeometry>
                </mxCell>
                <mxCell id="XAltgfJUorQuXmHK1meL-13" value="U&lt;br&gt;" style="edgeStyle=orthogonalEdgeStyle;rounded=0;orthogonalLoop=1;jettySize=auto;html=1;exitX=1;exitY=0.5;exitDx=0;exitDy=0;" parent="1" source="XAltgfJUorQuXmHK1meL-2" target="XAltgfJUorQuXmHK1meL-5" edge="1">
                    <mxGeometry x="0.1111" y="10" relative="1" as="geometry">
                        <mxPoint as="offset"/>
                    </mxGeometry>
                </mxCell>
                <mxCell id="XAltgfJUorQuXmHK1meL-2" value="" style="ellipse;whiteSpace=wrap;html=1;" parent="1" vertex="1">
                    <mxGeometry x="470" y="260" width="40" height="40" as="geometry"/>
                </mxCell>
                <mxCell id="XAltgfJUorQuXmHK1meL-14" value="&lt;br&gt;N" style="edgeStyle=orthogonalEdgeStyle;rounded=0;orthogonalLoop=1;jettySize=auto;html=1;exitX=1;exitY=0.5;exitDx=0;exitDy=0;" parent="1" source="XAltgfJUorQuXmHK1meL-5" edge="1">
                    <mxGeometry y="20" relative="1" as="geometry">
                        <mxPoint x="740" y="280" as="targetPoint"/>
                        <Array as="points">
                            <mxPoint x="690" y="280"/>
                            <mxPoint x="690" y="280"/>
                        </Array>
                        <mxPoint as="offset"/>
                    </mxGeometry>
                </mxCell>
                <mxCell id="XAltgfJUorQuXmHK1meL-5" value="" style="ellipse;whiteSpace=wrap;html=1;" parent="1" vertex="1">
                    <mxGeometry x="600" y="260" width="40" height="40" as="geometry"/>
                </mxCell>
                <mxCell id="XAltgfJUorQuXmHK1meL-15" style="edgeStyle=orthogonalEdgeStyle;rounded=0;orthogonalLoop=1;jettySize=auto;html=1;exitX=1;exitY=0.5;exitDx=0;exitDy=0;" parent="1" source="XAltgfJUorQuXmHK1meL-2" target="XAltgfJUorQuXmHK1meL-5" edge="1">
                    <mxGeometry relative="1" as="geometry">
                        <mxPoint x="620" y="290" as="targetPoint"/>
                        <mxPoint x="510" y="280" as="sourcePoint"/>
                        <Array as="points"/>
                    </mxGeometry>
                </mxCell>
                <mxCell id="XAltgfJUorQuXmHK1meL-17" style="edgeStyle=orthogonalEdgeStyle;rounded=0;orthogonalLoop=1;jettySize=auto;html=1;exitX=1;exitY=0.5;exitDx=0;exitDy=0;" parent="1" source="XAltgfJUorQuXmHK1meL-16" edge="1">
                    <mxGeometry relative="1" as="geometry">
                        <mxPoint x="860" y="280" as="targetPoint"/>
                    </mxGeometry>
                </mxCell>
                <mxCell id="XAltgfJUorQuXmHK1meL-16" value="" style="ellipse;whiteSpace=wrap;html=1;" parent="1" vertex="1">
                    <mxGeometry x="740" y="260" width="40" height="40" as="geometry"/>
                </mxCell>
                <mxCell id="XAltgfJUorQuXmHK1meL-20" style="edgeStyle=orthogonalEdgeStyle;rounded=0;orthogonalLoop=1;jettySize=auto;html=1;exitX=1;exitY=0.5;exitDx=0;exitDy=0;" parent="1" source="XAltgfJUorQuXmHK1meL-18" edge="1">
                    <mxGeometry relative="1" as="geometry">
                        <mxPoint x="990" y="280" as="targetPoint"/>
                    </mxGeometry>
                </mxCell>
                <mxCell id="XAltgfJUorQuXmHK1meL-18" value="" style="ellipse;whiteSpace=wrap;html=1;" parent="1" vertex="1">
                    <mxGeometry x="860" y="260" width="40" height="40" as="geometry"/>
                </mxCell>
                <mxCell id="XAltgfJUorQuXmHK1meL-19" value="c&lt;br&gt;" style="text;html=1;align=center;verticalAlign=middle;resizable=0;points=[];autosize=1;" parent="1" vertex="1">
                    <mxGeometry x="810" y="260" width="20" height="20" as="geometry"/>
                </mxCell>
                <mxCell id="XAltgfJUorQuXmHK1meL-23" style="edgeStyle=orthogonalEdgeStyle;rounded=0;orthogonalLoop=1;jettySize=auto;html=1;exitX=1;exitY=0.5;exitDx=0;exitDy=0;" parent="1" source="XAltgfJUorQuXmHK1meL-21" edge="1">
                    <mxGeometry relative="1" as="geometry">
                        <mxPoint x="1120" y="280" as="targetPoint"/>
                    </mxGeometry>
                </mxCell>
                <mxCell id="XAltgfJUorQuXmHK1meL-21" value="" style="ellipse;whiteSpace=wrap;html=1;" parent="1" vertex="1">
                    <mxGeometry x="990" y="260" width="40" height="40" as="geometry"/>
                </mxCell>
                <mxCell id="XAltgfJUorQuXmHK1meL-22" value="&lt;br&gt;T&lt;br&gt;" style="text;html=1;align=center;verticalAlign=middle;resizable=0;points=[];autosize=1;" parent="1" vertex="1">
                    <mxGeometry x="930" y="250" width="20" height="30" as="geometry"/>
                </mxCell>
                <mxCell id="XAltgfJUorQuXmHK1meL-26" style="edgeStyle=orthogonalEdgeStyle;rounded=0;orthogonalLoop=1;jettySize=auto;html=1;exitX=1;exitY=0.5;exitDx=0;exitDy=0;" parent="1" source="XAltgfJUorQuXmHK1meL-24" edge="1">
                    <mxGeometry relative="1" as="geometry">
                        <mxPoint x="1260" y="280" as="targetPoint"/>
                    </mxGeometry>
                </mxCell>
                <mxCell id="XAltgfJUorQuXmHK1meL-24" value="" style="ellipse;whiteSpace=wrap;html=1;" parent="1" vertex="1">
                    <mxGeometry x="1120" y="260" width="40" height="40" as="geometry"/>
                </mxCell>
                <mxCell id="XAltgfJUorQuXmHK1meL-25" value="I" style="text;html=1;align=center;verticalAlign=middle;resizable=0;points=[];autosize=1;" parent="1" vertex="1">
                    <mxGeometry x="1060" y="260" width="20" height="20" as="geometry"/>
                </mxCell>
                <mxCell id="XAltgfJUorQuXmHK1meL-27" value="O" style="text;html=1;align=center;verticalAlign=middle;resizable=0;points=[];autosize=1;" parent="1" vertex="1">
                    <mxGeometry x="1200" y="260" width="20" height="20" as="geometry"/>
                </mxCell>
                <mxCell id="XAltgfJUorQuXmHK1meL-29" style="edgeStyle=orthogonalEdgeStyle;rounded=0;orthogonalLoop=1;jettySize=auto;html=1;exitX=1;exitY=0.5;exitDx=0;exitDy=0;" parent="1" source="XAltgfJUorQuXmHK1meL-28" edge="1">
                    <mxGeometry relative="1" as="geometry">
                        <mxPoint x="1400" y="280" as="targetPoint"/>
                    </mxGeometry>
                </mxCell>
                <mxCell id="XAltgfJUorQuXmHK1meL-28" value="" style="ellipse;whiteSpace=wrap;html=1;" parent="1" vertex="1">
                    <mxGeometry x="1260" y="260" width="40" height="40" as="geometry"/>
                </mxCell>
                <mxCell id="XAltgfJUorQuXmHK1meL-30" value="N&lt;br&gt;" style="text;html=1;align=center;verticalAlign=middle;resizable=0;points=[];autosize=1;" parent="1" vertex="1">
                    <mxGeometry x="1330" y="260" width="20" height="20" as="geometry"/>
                </mxCell>
                <mxCell id="XAltgfJUorQuXmHK1meL-32" style="edgeStyle=orthogonalEdgeStyle;rounded=0;orthogonalLoop=1;jettySize=auto;html=1;exitX=1;exitY=0.5;exitDx=0;exitDy=0;" parent="1" source="XAltgfJUorQuXmHK1meL-31" edge="1">
                    <mxGeometry relative="1" as="geometry">
                        <mxPoint x="1520" y="280" as="targetPoint"/>
                    </mxGeometry>
                </mxCell>
                <mxCell id="XAltgfJUorQuXmHK1meL-31" value="" style="ellipse;whiteSpace=wrap;html=1;" parent="1" vertex="1">
                    <mxGeometry x="1400" y="260" width="40" height="40" as="geometry"/>
                </mxCell>
                <mxCell id="XAltgfJUorQuXmHK1meL-33" value="" style="ellipse;whiteSpace=wrap;html=1;" parent="1" vertex="1">
                    <mxGeometry x="1520" y="260" width="40" height="40" as="geometry"/>
                </mxCell>
                <mxCell id="XAltgfJUorQuXmHK1meL-34" value="[^a-zA-Z0-9]" style="text;html=1;align=center;verticalAlign=middle;resizable=0;points=[];autosize=1;" parent="1" vertex="1">
                    <mxGeometry x="1440" y="255" width="80" height="20" as="geometry"/>
                </mxCell>
                <mxCell id="XAltgfJUorQuXmHK1meL-36" value="T_FUNCTION&lt;br&gt;" style="text;html=1;align=center;verticalAlign=middle;resizable=0;points=[];autosize=1;fillColor=#f8cecc;strokeColor=#b85450;" parent="1" vertex="1">
                    <mxGeometry x="1495" y="300" width="90" height="20" as="geometry"/>
                </mxCell>
                <mxCell id="XAltgfJUorQuXmHK1meL-38" value="F" style="edgeStyle=orthogonalEdgeStyle;rounded=0;orthogonalLoop=1;jettySize=auto;html=1;entryX=0;entryY=0.5;entryDx=0;entryDy=0;" parent="1" source="XAltgfJUorQuXmHK1meL-37" target="XAltgfJUorQuXmHK1meL-2" edge="1">
                    <mxGeometry x="0.5111" y="20" relative="1" as="geometry">
                        <mxPoint x="340.00000000002" y="280" as="targetPoint"/>
                        <mxPoint as="offset"/>
                    </mxGeometry>
                </mxCell>
                <mxCell id="XAltgfJUorQuXmHK1meL-39" value="S" style="edgeStyle=orthogonalEdgeStyle;rounded=0;orthogonalLoop=1;jettySize=auto;html=1;exitX=0.5;exitY=1;exitDx=0;exitDy=0;entryX=0;entryY=0.5;entryDx=0;entryDy=0;" parent="1" source="XAltgfJUorQuXmHK1meL-37" target="XAltgfJUorQuXmHK1meL-44" edge="1">
                    <mxGeometry x="0.4286" y="10" relative="1" as="geometry">
                        <mxPoint x="400" y="390" as="targetPoint"/>
                        <Array as="points">
                            <mxPoint x="40" y="390"/>
                        </Array>
                        <mxPoint as="offset"/>
                    </mxGeometry>
                </mxCell>
                <mxCell id="XAltgfJUorQuXmHK1meL-118" style="edgeStyle=orthogonalEdgeStyle;rounded=0;orthogonalLoop=1;jettySize=auto;html=1;entryX=0;entryY=0.5;entryDx=0;entryDy=0;" parent="1" source="XAltgfJUorQuXmHK1meL-37" target="XAltgfJUorQuXmHK1meL-91" edge="1">
                    <mxGeometry relative="1" as="geometry">
                        <Array as="points">
                            <mxPoint x="40" y="240"/>
                            <mxPoint x="40" y="579"/>
                        </Array>
                    </mxGeometry>
                </mxCell>
                <mxCell id="XAltgfJUorQuXmHK1meL-37" value="" style="ellipse;whiteSpace=wrap;html=1;" parent="1" vertex="1">
                    <mxGeometry x="20" y="220" width="40" height="40" as="geometry"/>
                </mxCell>
                <mxCell id="XAltgfJUorQuXmHK1meL-42" style="edgeStyle=orthogonalEdgeStyle;rounded=0;orthogonalLoop=1;jettySize=auto;html=1;exitX=1;exitY=0.5;exitDx=0;exitDy=0;" parent="1" source="XAltgfJUorQuXmHK1meL-46" edge="1">
                    <mxGeometry relative="1" as="geometry">
                        <mxPoint x="620" y="400" as="targetPoint"/>
                        <Array as="points">
                            <mxPoint x="620" y="390"/>
                        </Array>
                    </mxGeometry>
                </mxCell>
                <mxCell id="XAltgfJUorQuXmHK1meL-43" value="U&lt;br&gt;" style="edgeStyle=orthogonalEdgeStyle;rounded=0;orthogonalLoop=1;jettySize=auto;html=1;exitX=1;exitY=0.5;exitDx=0;exitDy=0;" parent="1" source="XAltgfJUorQuXmHK1meL-44" target="XAltgfJUorQuXmHK1meL-46" edge="1">
                    <mxGeometry x="0.1111" y="10" relative="1" as="geometry">
                        <mxPoint as="offset"/>
                    </mxGeometry>
                </mxCell>
                <mxCell id="XAltgfJUorQuXmHK1meL-75" style="edgeStyle=orthogonalEdgeStyle;rounded=0;orthogonalLoop=1;jettySize=auto;html=1;entryX=0.5;entryY=0;entryDx=0;entryDy=0;" parent="1" source="XAltgfJUorQuXmHK1meL-44" target="XAltgfJUorQuXmHK1meL-74" edge="1">
                    <mxGeometry relative="1" as="geometry"/>
                </mxCell>
                <mxCell id="XAltgfJUorQuXmHK1meL-82" value="T" style="edgeStyle=orthogonalEdgeStyle;rounded=0;orthogonalLoop=1;jettySize=auto;html=1;" parent="1" source="XAltgfJUorQuXmHK1meL-44" target="XAltgfJUorQuXmHK1meL-74" edge="1">
                    <mxGeometry x="-0.2" y="10" relative="1" as="geometry">
                        <mxPoint as="offset"/>
                    </mxGeometry>
                </mxCell>
                <mxCell id="XAltgfJUorQuXmHK1meL-44" value="" style="ellipse;whiteSpace=wrap;html=1;" parent="1" vertex="1">
                    <mxGeometry x="470" y="370" width="40" height="40" as="geometry"/>
                </mxCell>
                <mxCell id="XAltgfJUorQuXmHK1meL-45" value="B" style="edgeStyle=orthogonalEdgeStyle;rounded=0;orthogonalLoop=1;jettySize=auto;html=1;exitX=1;exitY=0.5;exitDx=0;exitDy=0;" parent="1" source="XAltgfJUorQuXmHK1meL-46" edge="1">
                    <mxGeometry y="10" relative="1" as="geometry">
                        <mxPoint x="740" y="390" as="targetPoint"/>
                        <Array as="points">
                            <mxPoint x="690" y="390"/>
                            <mxPoint x="690" y="390"/>
                        </Array>
                        <mxPoint as="offset"/>
                    </mxGeometry>
                </mxCell>
                <mxCell id="XAltgfJUorQuXmHK1meL-46" value="" style="ellipse;whiteSpace=wrap;html=1;" parent="1" vertex="1">
                    <mxGeometry x="600" y="370" width="40" height="40" as="geometry"/>
                </mxCell>
                <mxCell id="XAltgfJUorQuXmHK1meL-47" style="edgeStyle=orthogonalEdgeStyle;rounded=0;orthogonalLoop=1;jettySize=auto;html=1;exitX=1;exitY=0.5;exitDx=0;exitDy=0;" parent="1" source="XAltgfJUorQuXmHK1meL-44" target="XAltgfJUorQuXmHK1meL-46" edge="1">
                    <mxGeometry relative="1" as="geometry">
                        <mxPoint x="620" y="400" as="targetPoint"/>
                        <mxPoint x="510" y="390" as="sourcePoint"/>
                        <Array as="points"/>
                    </mxGeometry>
                </mxCell>
                <mxCell id="XAltgfJUorQuXmHK1meL-48" style="edgeStyle=orthogonalEdgeStyle;rounded=0;orthogonalLoop=1;jettySize=auto;html=1;exitX=1;exitY=0.5;exitDx=0;exitDy=0;" parent="1" source="XAltgfJUorQuXmHK1meL-49" edge="1">
                    <mxGeometry relative="1" as="geometry">
                        <mxPoint x="860" y="390" as="targetPoint"/>
                    </mxGeometry>
                </mxCell>
                <mxCell id="XAltgfJUorQuXmHK1meL-49" value="" style="ellipse;whiteSpace=wrap;html=1;" parent="1" vertex="1">
                    <mxGeometry x="740" y="370" width="40" height="40" as="geometry"/>
                </mxCell>
                <mxCell id="XAltgfJUorQuXmHK1meL-50" style="edgeStyle=orthogonalEdgeStyle;rounded=0;orthogonalLoop=1;jettySize=auto;html=1;exitX=1;exitY=0.5;exitDx=0;exitDy=0;" parent="1" source="XAltgfJUorQuXmHK1meL-51" edge="1">
                    <mxGeometry relative="1" as="geometry">
                        <mxPoint x="990" y="390" as="targetPoint"/>
                    </mxGeometry>
                </mxCell>
                <mxCell id="XAltgfJUorQuXmHK1meL-51" value="" style="ellipse;whiteSpace=wrap;html=1;" parent="1" vertex="1">
                    <mxGeometry x="860" y="370" width="40" height="40" as="geometry"/>
                </mxCell>
                <mxCell id="XAltgfJUorQuXmHK1meL-52" value="R" style="text;html=1;align=center;verticalAlign=middle;resizable=0;points=[];autosize=1;" parent="1" vertex="1">
                    <mxGeometry x="810" y="370" width="20" height="20" as="geometry"/>
                </mxCell>
                <mxCell id="XAltgfJUorQuXmHK1meL-53" style="edgeStyle=orthogonalEdgeStyle;rounded=0;orthogonalLoop=1;jettySize=auto;html=1;exitX=1;exitY=0.5;exitDx=0;exitDy=0;" parent="1" source="XAltgfJUorQuXmHK1meL-54" edge="1">
                    <mxGeometry relative="1" as="geometry">
                        <mxPoint x="1120" y="390" as="targetPoint"/>
                    </mxGeometry>
                </mxCell>
                <mxCell id="XAltgfJUorQuXmHK1meL-54" value="" style="ellipse;whiteSpace=wrap;html=1;" parent="1" vertex="1">
                    <mxGeometry x="990" y="370" width="40" height="40" as="geometry"/>
                </mxCell>
                <mxCell id="XAltgfJUorQuXmHK1meL-55" value="O" style="text;html=1;align=center;verticalAlign=middle;resizable=0;points=[];autosize=1;" parent="1" vertex="1">
                    <mxGeometry x="930" y="365" width="20" height="20" as="geometry"/>
                </mxCell>
                <mxCell id="XAltgfJUorQuXmHK1meL-56" style="edgeStyle=orthogonalEdgeStyle;rounded=0;orthogonalLoop=1;jettySize=auto;html=1;exitX=1;exitY=0.5;exitDx=0;exitDy=0;" parent="1" source="XAltgfJUorQuXmHK1meL-57" edge="1">
                    <mxGeometry relative="1" as="geometry">
                        <mxPoint x="1260" y="390" as="targetPoint"/>
                    </mxGeometry>
                </mxCell>
                <mxCell id="XAltgfJUorQuXmHK1meL-57" value="" style="ellipse;whiteSpace=wrap;html=1;" parent="1" vertex="1">
                    <mxGeometry x="1120" y="370" width="40" height="40" as="geometry"/>
                </mxCell>
                <mxCell id="XAltgfJUorQuXmHK1meL-58" value="U" style="text;html=1;align=center;verticalAlign=middle;resizable=0;points=[];autosize=1;" parent="1" vertex="1">
                    <mxGeometry x="1060" y="370" width="20" height="20" as="geometry"/>
                </mxCell>
                <mxCell id="XAltgfJUorQuXmHK1meL-59" value="T" style="text;html=1;align=center;verticalAlign=middle;resizable=0;points=[];autosize=1;" parent="1" vertex="1">
                    <mxGeometry x="1200" y="370" width="20" height="20" as="geometry"/>
                </mxCell>
                <mxCell id="XAltgfJUorQuXmHK1meL-60" style="edgeStyle=orthogonalEdgeStyle;rounded=0;orthogonalLoop=1;jettySize=auto;html=1;exitX=1;exitY=0.5;exitDx=0;exitDy=0;" parent="1" source="XAltgfJUorQuXmHK1meL-61" edge="1">
                    <mxGeometry relative="1" as="geometry">
                        <mxPoint x="1400" y="390" as="targetPoint"/>
                    </mxGeometry>
                </mxCell>
                <mxCell id="XAltgfJUorQuXmHK1meL-61" value="" style="ellipse;whiteSpace=wrap;html=1;" parent="1" vertex="1">
                    <mxGeometry x="1260" y="370" width="40" height="40" as="geometry"/>
                </mxCell>
                <mxCell id="XAltgfJUorQuXmHK1meL-62" value="I" style="text;html=1;align=center;verticalAlign=middle;resizable=0;points=[];autosize=1;" parent="1" vertex="1">
                    <mxGeometry x="1330" y="370" width="20" height="20" as="geometry"/>
                </mxCell>
                <mxCell id="XAltgfJUorQuXmHK1meL-63" style="edgeStyle=orthogonalEdgeStyle;rounded=0;orthogonalLoop=1;jettySize=auto;html=1;exitX=1;exitY=0.5;exitDx=0;exitDy=0;" parent="1" source="XAltgfJUorQuXmHK1meL-64" edge="1">
                    <mxGeometry relative="1" as="geometry">
                        <mxPoint x="1810" y="390" as="targetPoint"/>
                    </mxGeometry>
                </mxCell>
                <mxCell id="XAltgfJUorQuXmHK1meL-64" value="" style="ellipse;whiteSpace=wrap;html=1;" parent="1" vertex="1">
                    <mxGeometry x="1690" y="370" width="40" height="40" as="geometry"/>
                </mxCell>
                <mxCell id="XAltgfJUorQuXmHK1meL-65" value="" style="ellipse;whiteSpace=wrap;html=1;" parent="1" vertex="1">
                    <mxGeometry x="1810" y="370" width="40" height="40" as="geometry"/>
                </mxCell>
                <mxCell id="XAltgfJUorQuXmHK1meL-66" value="[^a-zA-Z0-9]" style="text;html=1;align=center;verticalAlign=middle;resizable=0;points=[];autosize=1;" parent="1" vertex="1">
                    <mxGeometry x="1730" y="365" width="80" height="20" as="geometry"/>
                </mxCell>
                <mxCell id="XAltgfJUorQuXmHK1meL-67" value="T_SUBROUTINE&lt;br&gt;" style="text;html=1;align=center;verticalAlign=middle;resizable=0;points=[];autosize=1;fillColor=#f8cecc;strokeColor=#b85450;" parent="1" vertex="1">
                    <mxGeometry x="1780" y="412.5" width="110" height="20" as="geometry"/>
                </mxCell>
                <mxCell id="XAltgfJUorQuXmHK1meL-69" style="edgeStyle=orthogonalEdgeStyle;rounded=0;orthogonalLoop=1;jettySize=auto;html=1;entryX=0;entryY=0.5;entryDx=0;entryDy=0;" parent="1" source="XAltgfJUorQuXmHK1meL-71" target="XAltgfJUorQuXmHK1meL-64" edge="1">
                    <mxGeometry relative="1" as="geometry"/>
                </mxCell>
                <mxCell id="XAltgfJUorQuXmHK1meL-68" value="" style="ellipse;whiteSpace=wrap;html=1;" parent="1" vertex="1">
                    <mxGeometry x="1400" y="370" width="40" height="40" as="geometry"/>
                </mxCell>
                <mxCell id="XAltgfJUorQuXmHK1meL-70" value="N" style="text;html=1;align=center;verticalAlign=middle;resizable=0;points=[];autosize=1;" parent="1" vertex="1">
                    <mxGeometry x="1480" y="370" width="20" height="20" as="geometry"/>
                </mxCell>
                <mxCell id="XAltgfJUorQuXmHK1meL-71" value="" style="ellipse;whiteSpace=wrap;html=1;" parent="1" vertex="1">
                    <mxGeometry x="1545" y="367.5" width="40" height="45" as="geometry"/>
                </mxCell>
                <mxCell id="XAltgfJUorQuXmHK1meL-72" style="edgeStyle=orthogonalEdgeStyle;rounded=0;orthogonalLoop=1;jettySize=auto;html=1;entryX=0;entryY=0.5;entryDx=0;entryDy=0;" parent="1" source="XAltgfJUorQuXmHK1meL-68" target="XAltgfJUorQuXmHK1meL-71" edge="1">
                    <mxGeometry relative="1" as="geometry">
                        <mxPoint x="1440" y="390" as="sourcePoint"/>
                        <mxPoint x="1670" y="390" as="targetPoint"/>
                    </mxGeometry>
                </mxCell>
                <mxCell id="XAltgfJUorQuXmHK1meL-73" value="E" style="text;html=1;align=center;verticalAlign=middle;resizable=0;points=[];autosize=1;" parent="1" vertex="1">
                    <mxGeometry x="1630" y="370" width="20" height="20" as="geometry"/>
                </mxCell>
                <mxCell id="XAltgfJUorQuXmHK1meL-76" style="edgeStyle=orthogonalEdgeStyle;rounded=0;orthogonalLoop=1;jettySize=auto;html=1;" parent="1" source="XAltgfJUorQuXmHK1meL-74" edge="1">
                    <mxGeometry relative="1" as="geometry">
                        <mxPoint x="590" y="480" as="targetPoint"/>
                    </mxGeometry>
                </mxCell>
                <mxCell id="XAltgfJUorQuXmHK1meL-74" value="" style="ellipse;whiteSpace=wrap;html=1;" parent="1" vertex="1">
                    <mxGeometry x="470" y="460" width="40" height="40" as="geometry"/>
                </mxCell>
                <mxCell id="XAltgfJUorQuXmHK1meL-80" style="edgeStyle=orthogonalEdgeStyle;rounded=0;orthogonalLoop=1;jettySize=auto;html=1;exitX=1;exitY=0.5;exitDx=0;exitDy=0;entryX=0;entryY=0.5;entryDx=0;entryDy=0;" parent="1" source="XAltgfJUorQuXmHK1meL-77" target="XAltgfJUorQuXmHK1meL-78" edge="1">
                    <mxGeometry relative="1" as="geometry"/>
                </mxCell>
                <mxCell id="XAltgfJUorQuXmHK1meL-77" value="" style="ellipse;whiteSpace=wrap;html=1;" parent="1" vertex="1">
                    <mxGeometry x="590" y="460" width="40" height="40" as="geometry"/>
                </mxCell>
                <mxCell id="XAltgfJUorQuXmHK1meL-81" style="edgeStyle=orthogonalEdgeStyle;rounded=0;orthogonalLoop=1;jettySize=auto;html=1;exitX=1;exitY=0.5;exitDx=0;exitDy=0;entryX=0;entryY=0.5;entryDx=0;entryDy=0;" parent="1" source="XAltgfJUorQuXmHK1meL-78" target="XAltgfJUorQuXmHK1meL-79" edge="1">
                    <mxGeometry relative="1" as="geometry"/>
                </mxCell>
                <mxCell id="XAltgfJUorQuXmHK1meL-78" value="" style="ellipse;whiteSpace=wrap;html=1;" parent="1" vertex="1">
                    <mxGeometry x="690" y="460" width="40" height="40" as="geometry"/>
                </mxCell>
                <mxCell id="XAltgfJUorQuXmHK1meL-79" value="" style="ellipse;whiteSpace=wrap;html=1;" parent="1" vertex="1">
                    <mxGeometry x="810" y="460" width="40" height="40" as="geometry"/>
                </mxCell>
                <mxCell id="XAltgfJUorQuXmHK1meL-83" value="O" style="text;html=1;align=center;verticalAlign=middle;resizable=0;points=[];autosize=1;" parent="1" vertex="1">
                    <mxGeometry x="540" y="460" width="20" height="20" as="geometry"/>
                </mxCell>
                <mxCell id="XAltgfJUorQuXmHK1meL-84" value="P" style="text;html=1;align=center;verticalAlign=middle;resizable=0;points=[];autosize=1;" parent="1" vertex="1">
                    <mxGeometry x="650" y="460" width="20" height="20" as="geometry"/>
                </mxCell>
                <mxCell id="XAltgfJUorQuXmHK1meL-85" value="[^a-zA-Z0-9]" style="text;html=1;align=center;verticalAlign=middle;resizable=0;points=[];autosize=1;" parent="1" vertex="1">
                    <mxGeometry x="730" y="450" width="80" height="20" as="geometry"/>
                </mxCell>
                <mxCell id="XAltgfJUorQuXmHK1meL-86" value="T_STOP&lt;br&gt;" style="text;html=1;align=center;verticalAlign=middle;resizable=0;points=[];autosize=1;fillColor=#f8cecc;strokeColor=#b85450;" parent="1" vertex="1">
                    <mxGeometry x="800" y="500" width="60" height="20" as="geometry"/>
                </mxCell>
                <mxCell id="XAltgfJUorQuXmHK1meL-87" value="E" style="edgeStyle=orthogonalEdgeStyle;rounded=0;orthogonalLoop=1;jettySize=auto;html=1;" parent="1" target="XAltgfJUorQuXmHK1meL-91" edge="1">
                    <mxGeometry x="0.1111" y="10" relative="1" as="geometry">
                        <Array as="points">
                            <mxPoint x="420" y="579"/>
                            <mxPoint x="420" y="579"/>
                        </Array>
                        <mxPoint as="offset"/>
                        <mxPoint x="370" y="579" as="sourcePoint"/>
                    </mxGeometry>
                </mxCell>
                <mxCell id="XAltgfJUorQuXmHK1meL-89" style="edgeStyle=orthogonalEdgeStyle;rounded=0;orthogonalLoop=1;jettySize=auto;html=1;exitX=1;exitY=0.5;exitDx=0;exitDy=0;" parent="1" source="XAltgfJUorQuXmHK1meL-93" edge="1">
                    <mxGeometry relative="1" as="geometry">
                        <mxPoint x="610" y="589" as="targetPoint"/>
                        <Array as="points">
                            <mxPoint x="610" y="579"/>
                        </Array>
                    </mxGeometry>
                </mxCell>
                <mxCell id="XAltgfJUorQuXmHK1meL-90" value="N" style="edgeStyle=orthogonalEdgeStyle;rounded=0;orthogonalLoop=1;jettySize=auto;html=1;exitX=1;exitY=0.5;exitDx=0;exitDy=0;" parent="1" source="XAltgfJUorQuXmHK1meL-91" target="XAltgfJUorQuXmHK1meL-93" edge="1">
                    <mxGeometry x="0.1111" y="10" relative="1" as="geometry">
                        <mxPoint as="offset"/>
                    </mxGeometry>
                </mxCell>
                <mxCell id="XAltgfJUorQuXmHK1meL-91" value="" style="ellipse;whiteSpace=wrap;html=1;" parent="1" vertex="1">
                    <mxGeometry x="460" y="559" width="40" height="40" as="geometry"/>
                </mxCell>
                <mxCell id="XAltgfJUorQuXmHK1meL-92" value="D" style="edgeStyle=orthogonalEdgeStyle;rounded=0;orthogonalLoop=1;jettySize=auto;html=1;exitX=1;exitY=0.5;exitDx=0;exitDy=0;" parent="1" source="XAltgfJUorQuXmHK1meL-93" edge="1">
                    <mxGeometry y="20" relative="1" as="geometry">
                        <mxPoint x="730" y="579" as="targetPoint"/>
                        <Array as="points">
                            <mxPoint x="680" y="579"/>
                            <mxPoint x="680" y="579"/>
                        </Array>
                        <mxPoint as="offset"/>
                    </mxGeometry>
                </mxCell>
                <mxCell id="XAltgfJUorQuXmHK1meL-93" value="" style="ellipse;whiteSpace=wrap;html=1;" parent="1" vertex="1">
                    <mxGeometry x="590" y="559" width="40" height="40" as="geometry"/>
                </mxCell>
                <mxCell id="XAltgfJUorQuXmHK1meL-94" style="edgeStyle=orthogonalEdgeStyle;rounded=0;orthogonalLoop=1;jettySize=auto;html=1;exitX=1;exitY=0.5;exitDx=0;exitDy=0;" parent="1" source="XAltgfJUorQuXmHK1meL-91" target="XAltgfJUorQuXmHK1meL-93" edge="1">
                    <mxGeometry relative="1" as="geometry">
                        <mxPoint x="610" y="589" as="targetPoint"/>
                        <mxPoint x="500" y="579" as="sourcePoint"/>
                        <Array as="points"/>
                    </mxGeometry>
                </mxCell>
                <mxCell id="XAltgfJUorQuXmHK1meL-96" value="" style="ellipse;whiteSpace=wrap;html=1;" parent="1" vertex="1">
                    <mxGeometry x="730" y="559" width="40" height="40" as="geometry"/>
                </mxCell>
                <mxCell id="XAltgfJUorQuXmHK1meL-110" style="edgeStyle=orthogonalEdgeStyle;rounded=0;orthogonalLoop=1;jettySize=auto;html=1;exitX=1;exitY=0.5;exitDx=0;exitDy=0;" parent="1" edge="1">
                    <mxGeometry relative="1" as="geometry">
                        <mxPoint x="850" y="577" as="targetPoint"/>
                        <mxPoint x="770" y="576.9999999999998" as="sourcePoint"/>
                    </mxGeometry>
                </mxCell>
                <mxCell id="XAltgfJUorQuXmHK1meL-112" value="" style="ellipse;whiteSpace=wrap;html=1;" parent="1" vertex="1">
                    <mxGeometry x="850" y="557" width="40" height="40" as="geometry"/>
                </mxCell>
                <mxCell id="XAltgfJUorQuXmHK1meL-113" value="[^a-zA-Z0-9]" style="text;html=1;align=center;verticalAlign=middle;resizable=0;points=[];autosize=1;" parent="1" vertex="1">
                    <mxGeometry x="770" y="552" width="80" height="20" as="geometry"/>
                </mxCell>
                <mxCell id="XAltgfJUorQuXmHK1meL-114" value="T_END" style="text;html=1;align=center;verticalAlign=middle;resizable=0;points=[];autosize=1;fillColor=#f8cecc;strokeColor=#b85450;" parent="1" vertex="1">
                    <mxGeometry x="845" y="597" width="50" height="20" as="geometry"/>
                </mxCell>
            </root>
        </mxGraphModel>
    </diagram>
</mxfile>